# xmcd
#
# Track frame offsets:
#	150
#	15438
#	29884
#	40975
#	56681
#	70734
#	90288
#	107785
#	123200
#	139835
#	159920
#	175773
#	190670
#	211066
#	226192
#	238480
#	255565
#	268827
#	281042
#	293104
#
# Disc length: 4089 seconds
#
# Revision: 0
# Processed by: cddbd v1.5.2PL0 Copyright (c) Steve Scherf et al.
# Submitted via: EasyCDDAExtractor 11.0.3.1
#
DISCID=1b0ff714
DTITLE=Various Artist - Lady
DYEAR=2008
DGENRE=Tanssimusiikki
TTITLE0=Jorma K‰‰ri‰inen - Lady
TTITLE1=Danny - H‰n on lady
TTITLE2=Tapio Heinonen - H‰n
TTITLE3=Juha-Matti - H‰n on nainen
TTITLE4=Kake Randelin - Kielletyt tunteet
TTITLE5=Markku Aro - Rouva Jones
TTITLE6=Danny and Daniela - You Are My Destiny
TTITLE7=Jukka Ruusumaa - T‰htitaivas tiet‰ n‰ytt‰‰
TTITLE8=Kikka - N‰inkˆ aina meille t‰‰ll‰ k‰y
TTITLE9=Petri and Petterssons Brass - Miehen sait muuttumaan
TTITLE10=Petri Salminen - Samanlainen onni
TTITLE11=Pepe Willberg - Saat miehen kyyneliin
TTITLE12=Janne Hurme - Kirje
TTITLE13=Tauski - Sin‰ vain
TTITLE14=Jarno Sarjanen - V‰h‰n ennen kyyneleit‰
TTITLE15=Virpi and Tauski - Haavemaa
TTITLE16=Jorma K‰‰ri‰inen - Salattu Suru
TTITLE17=Pepe Willberg - Olet rakkain
TTITLE18=TT Purontaka - Muisto vain j‰‰
TTITLE19=Salomon - Can't help falling in love
EXTD=
EXTT0=
EXTT1=
EXTT2=
EXTT3=
EXTT4=
EXTT5=
EXTT6=
EXTT7=
EXTT8=
EXTT9=
EXTT10=
EXTT11=
EXTT12=
EXTT13=
EXTT14=
EXTT15=
EXTT16=
EXTT17=
EXTT18=
EXTT19=
PLAYORDER=
